<svg width="58" height="58" viewBox="0 0 58 58" fill="none" xmlns="http://www.w3.org/2000/svg">
<g id="Component 22">
<g id="Ellipse 2" filter="url(#filter0_d_1_2740)">
<circle cx="25" cy="25" r="25" transform="matrix(-1 0 0 1 54 0)" fill="#FF8E8E"/>
</g>
<path id="Arrow 1" d="M14.2929 24.2929C13.9024 24.6834 13.9024 25.3166 14.2929 25.7071L20.6569 32.0711C21.0474 32.4616 21.6805 32.4616 22.0711 32.0711C22.4616 31.6805 22.4616 31.0474 22.0711 30.6569L16.4142 25L22.0711 19.3431C22.4616 18.9526 22.4616 18.3195 22.0711 17.9289C21.6805 17.5384 21.0474 17.5384 20.6569 17.9289L14.2929 24.2929ZM44 25V24L15 24V25V26L44 26V25Z" fill="black"/>
</g>
<defs>
<filter id="filter0_d_1_2740" x="0" y="0" width="58" height="58" filterUnits="userSpaceOnUse" color-interpolation-filters="sRGB">
<feFlood flood-opacity="0" result="BackgroundImageFix"/>
<feColorMatrix in="SourceAlpha" type="matrix" values="0 0 0 0 0 0 0 0 0 0 0 0 0 0 0 0 0 0 127 0" result="hardAlpha"/>
<feOffset dy="4"/>
<feGaussianBlur stdDeviation="2"/>
<feComposite in2="hardAlpha" operator="out"/>
<feColorMatrix type="matrix" values="0 0 0 0 0 0 0 0 0 0 0 0 0 0 0 0 0 0 0.25 0"/>
<feBlend mode="normal" in2="BackgroundImageFix" result="effect1_dropShadow_1_2740"/>
<feBlend mode="normal" in="SourceGraphic" in2="effect1_dropShadow_1_2740" result="shape"/>
</filter>
</defs>
</svg>
