<svg width="42" height="42" viewBox="0 0 42 42" fill="none" xmlns="http://www.w3.org/2000/svg">
<path d="M20.985 26.6442C23.5362 26.6442 25.6068 24.5172 25.6068 21.8927C25.6068 19.2682 23.5362 17.1411 20.985 17.1411C18.4338 17.1411 16.3633 19.2682 16.3633 21.8927C16.3633 24.5172 18.4338 26.6442 20.985 26.6442Z" stroke="#F6ADD5" stroke-width="2" stroke-linecap="round" stroke-linejoin="round"/>
<path d="M40.613 15.7692C39.9577 13.7066 38.5385 11.9975 36.6668 11.017C34.7951 10.0364 32.624 9.86462 30.63 10.5393C29.9183 10.748 29.2425 11.0708 28.6273 11.496C28.9667 10.2712 29.0266 8.98153 28.8024 7.72867C28.5781 6.4758 28.0757 5.29398 27.3348 4.27634C26.594 3.2587 25.6349 2.43306 24.5331 1.8645C23.4314 1.29594 22.2171 1 20.986 1C19.7549 1 18.5406 1.29594 17.4388 1.8645C16.3371 2.43306 15.378 3.2587 14.6371 4.27634C13.8962 5.29398 13.3939 6.4758 13.1696 7.72867C12.9453 8.98153 13.0052 10.2712 13.3447 11.496C12.7314 11.0597 12.0555 10.726 11.3419 10.5074C10.3567 10.1745 9.31768 10.0456 8.28432 10.1283C7.25096 10.2109 6.24344 10.5034 5.3193 10.9891C4.39516 11.4747 3.57248 12.144 2.89825 12.9587C2.22401 13.7734 1.71143 14.7176 1.38975 15.7373C1.06807 16.757 0.943607 17.8324 1.02346 18.9019C1.10331 19.9714 1.38592 21.0142 1.85514 21.9707C2.32437 22.9271 2.97102 23.7786 3.75819 24.4764C4.54535 25.1742 5.4576 25.7048 6.44286 26.0377C7.16454 26.2582 7.90953 26.3867 8.6613 26.4204C8.08703 26.8971 7.56984 27.4431 7.12072 28.0467C6.50727 28.9111 6.06578 29.893 5.82188 30.9354C5.57798 31.9777 5.53652 33.0599 5.6999 34.119C5.86328 35.1781 6.22826 36.193 6.77364 37.105C7.31903 38.0169 8.03397 38.8077 8.87698 39.4314C10.5805 40.7055 12.7009 41.2326 14.7778 40.8983C16.8546 40.5639 18.7201 39.395 19.9692 37.6455C20.4015 37.0196 20.744 36.3321 20.986 35.6046C21.2386 36.3381 21.5878 37.0184 22.0336 37.6455C22.8072 38.7303 23.8257 39.6026 25.0001 40.1862C26.1744 40.7698 27.469 41.047 28.7707 40.9935C30.0724 40.94 31.3416 40.5575 32.4676 39.8794C33.5936 39.2014 34.5421 38.2483 35.2302 37.1034C36.0512 35.7299 36.4567 34.1338 36.3947 32.52C36.3326 30.9062 35.8059 29.3484 34.882 28.0467C34.4329 27.4431 33.9157 26.8971 33.3415 26.4204C34.0829 26.3842 34.8174 26.2557 35.5291 26.0377C36.5163 25.712 37.4315 25.1875 38.2221 24.4942C39.0126 23.8009 39.6629 22.9527 40.1354 21.9983C40.608 21.0439 40.8934 20.0022 40.9754 18.9331C41.0573 17.8641 40.9342 16.7888 40.613 15.7692Z" stroke="#F6ADD5" stroke-width="2" stroke-linecap="round" stroke-linejoin="round"/>
<path d="M40.613 15.5786C39.9577 13.5426 38.5385 11.8555 36.6668 10.8876C34.7951 9.91976 32.624 9.75019 30.63 10.4161C29.9183 10.6222 29.2425 10.9408 28.6273 11.3605C28.9667 10.1515 29.0266 8.8785 28.8024 7.64181C28.5781 6.40512 28.0757 5.23855 27.3348 4.23405C26.594 3.22954 25.6349 2.41457 24.5331 1.85334C23.4314 1.29212 22.2171 1 20.986 1C19.7549 1 18.5406 1.29212 17.4388 1.85334C16.3371 2.41457 15.378 3.22954 14.6371 4.23405C13.8962 5.23855 13.3939 6.40512 13.1696 7.64181C12.9453 8.8785 13.0052 10.1515 13.3447 11.3605C12.7314 10.9298 12.0555 10.6005 11.3419 10.3847C10.3567 10.056 9.31769 9.92888 8.28432 10.0105C7.25096 10.092 6.24344 10.3808 5.3193 10.8601C4.39515 11.3395 3.57248 12.0001 2.89825 12.8043C2.22401 13.6085 1.71143 14.5405 1.38975 15.5471C1.06807 16.5536 0.943607 17.6151 1.02346 18.6708C1.10331 19.7265 1.38592 20.7558 1.85514 21.6999C2.32437 22.6441 2.97102 23.4845 3.75819 24.1734C4.54535 24.8622 5.4576 25.3859 6.44286 25.7145C7.16454 25.9322 7.90953 26.059 8.6613 26.0922C8.08703 26.5628 7.56984 27.1017 7.12072 27.6976C6.50727 28.5508 6.06578 29.52 5.82188 30.5489C5.57798 31.5779 5.53652 32.646 5.6999 33.6914C5.86328 34.7369 6.22826 35.7387 6.77364 36.6389C7.31903 37.5391 8.03397 38.3196 8.87698 38.9353C10.5805 40.193 12.7009 40.7133 14.7778 40.3832C16.8546 40.0532 18.7201 38.8994 19.9692 37.1725C20.4015 36.5546 20.744 35.876 20.986 35.1579C21.2386 35.8819 21.5878 36.5534 22.0336 37.1725C22.8072 38.2433 23.8257 39.1043 25.0001 39.6804C26.1744 40.2564 27.469 40.53 28.7707 40.4772C30.0724 40.4244 31.3416 40.0469 32.4676 39.3776C33.5936 38.7082 34.5421 37.7674 35.2302 36.6374C36.0512 35.2816 36.4567 33.7061 36.3946 32.1131C36.3326 30.5201 35.8059 28.9824 34.882 27.6976C34.4329 27.1017 33.9157 26.5628 33.3415 26.0922C34.0829 26.0565 34.8174 25.9297 35.5291 25.7145C36.5163 25.393 37.4315 24.8752 38.2221 24.1909C39.0126 23.5066 39.6629 22.6693 40.1354 21.7272C40.608 20.7851 40.8934 19.7569 40.9754 18.7016C41.0573 17.6464 40.9342 16.585 40.613 15.5786Z" fill="#F6ADD5" stroke="#F6ADD5" stroke-width="2" stroke-linecap="round" stroke-linejoin="round"/>
<path d="M20.985 26.6442C23.5362 26.6442 25.6068 24.5172 25.6068 21.8927C25.6068 19.2682 23.5362 17.1411 20.985 17.1411C18.4338 17.1411 16.3633 19.2682 16.3633 21.8927C16.3633 24.5172 18.4338 26.6442 20.985 26.6442Z" fill="white" stroke="#F6ADD5" stroke-width="2" stroke-linecap="round" stroke-linejoin="round"/>
</svg>
